<?xml version="1.0" encoding="utf-8"?>
<svg version="1.1" id="Capa_1" x="0px" y="0px" width="130.168px" height="130.168px" viewBox="0 0 130.168 130.168" style="enable-background:new 0 0 130.168 130.168;" xmlns="http://www.w3.org/2000/svg" xmlns:bx="https://boxy-svg.com">
  <defs>
    <bx:grid x="-97.473" y="-18.081" width="317.705" height="215.373"/>
  </defs>
  <g transform="matrix(1, 0, 0, 1, -194.741165, -32.953583)">
    <g>
      <path d="M112.078,34.293l-0.729-0.684l-0.306-0.29C89.068,11.902,63.146,12.941,45.12,17.702 C-2.445,30.255-0.005,69.472,0.03,69.816c0.494,8.088,3.524,14.484,8.988,19.017c9.497,7.863,23.388,7.551,27.825,7.223 c2.834,4.515,8.528,7.469,16.172,7.924l0.975,0.054c0.369,2.711,1.411,4.958,3.133,6.665c4.169,4.132,11.458,4.597,20.71,4.597 c1.288,0,2.638-0.011,3.996-0.016l4.491-0.022c17.581,0,28.991-4.323,34.89-13.199C142.739,69.565,119.669,41.976,112.078,34.293z M102.481,33.22c-17.373,3.387-23.77,20.898-25.928,29.308c-5.603-6.216-0.334-16.618-0.065-17.122 c0.711-1.368,0.169-3.063-1.199-3.781c-1.346-0.695-3.053-0.181-3.773,1.187c-0.21,0.389-4.945,9.609-2.344,17.916 c0.481,1.532,1.248,2.883,2.134,4.143h-4.933l-0.033-0.07c-2.287-3.761-2.849-7.601-1.696-11.772 c3.614-13.083,22.548-24.383,26.871-26.812C95.23,28.027,98.896,30.348,102.481,33.22z M35.977,77.423 c-3.644,0.871-12.324,1.983-16.559-1.713c-2.229-1.953-3.073-5.253-2.477-9.806c0.189-1.526-0.885-2.933-2.426-3.135 c-1.52-0.219-2.942,0.887-3.145,2.424c-0.829,6.528,0.621,11.486,4.354,14.741c3.553,3.104,8.516,3.935,12.858,3.935 c2.405,0,4.597-0.257,6.271-0.536c-0.129,1.816-0.145,3.749-0.021,5.838l0.138,1.357c-4.823,0.164-15.386-0.214-22.401-6.029 c-4.219-3.502-6.556-8.553-6.959-15.065c-0.023-0.345-2.174-34.937,40.941-46.32c7.358-1.937,16.153-3.218,25.388-2.342 c-1.676,1.297-3.744,2.955-5.993,4.87l-0.185-0.038c-1.468-0.081-36.781-0.186-43.892,22.993 c-0.453,1.478,0.364,3.048,1.856,3.498l0.817,0.125c1.193,0,2.302-0.782,2.68-1.985c4.285-13.965,22.501-17.719,32.246-18.699 c-4.56,4.46-8.752,9.374-10.457,13.713c-5.288,0.121-13.079,2.501-15.485,11.196c-1.566,5.641,0.878,11.409,5.769,14.681 C37.858,72.897,36.72,74.961,35.977,77.423z M38.924,57.959c2.218-8.005,11.425-7.058,11.822-7.025 c1.389,0.197,2.848-0.832,3.1-2.32c1.091-6.583,15.906-19.437,24.983-25.992l0.583-0.635c1.871,0.421,3.74,0.952,5.612,1.587 C77.32,28.378,62.753,38.89,59.251,51.551c-1.282,4.619-0.908,9.084,0.919,13.335h-5.512l-0.448-0.006 c-4.041,0-7.454,0.865-10.31,2.437C40.021,65.604,37.887,61.707,38.924,57.959z M116.532,98.961 c-4.777,7.201-14.652,10.697-30.215,10.697l-4.524,0.022c-9.459,0.044-17.626,0.114-20.724-2.955 c-0.455-0.448-0.978-1.19-1.314-2.408c8.503,0.357,15.666,0.416,19.026,0.416c1.285,0,2.013-0.005,2.046-0.005 c1.545-0.021,2.791-1.286,2.769-2.84c-0.014-1.549-1.466-2.873-2.834-2.764c-0.121-0.005-12.808,0.126-27.429-0.738 c-5.951-0.351-12.902-2.971-12.902-9.209l-0.046-0.794c-0.392-6.567,0.822-11.382,3.645-14.337 c2.33-2.446,5.696-3.639,10.576-3.582h37.072c1.538,0,2.802-1.261,2.802-2.805c0-1.547-1.264-2.801-2.802-2.801h-9.953 c1.702-7.36,7.88-26.293,26.388-26.621C114.962,45.21,135.723,70.014,116.532,98.961z"/>
      <path d="M13.103,52.629c-1.513,0.35-2.442,1.844-2.101,3.354c0.348,1.494,1.819,2.49,3.349,2.112 c0.053-0.011,5.486-1.176,8.759,1.702c2.232,1.964,3.138,5.526,2.685,10.61c-0.135,1.532,1.004,2.9,2.538,3.037l0.252,0.012 c1.443,0,2.662-1.096,2.791-2.557c0.625-6.977-0.93-12.137-4.599-15.337C21.311,50.808,13.416,52.569,13.103,52.629z"/>
      <path d="M104.686,47.765c-5.547-0.507-13.662,1.642-14.654,4.586c-0.502,1.472,0.297,3.054,1.751,3.546 c1.095,0.368,2.249,0.033,2.977-0.777c1.401-0.821,7.82-3.141,13.135-0.887c4.015,1.713,6.542,5.801,7.484,12.16 c0.196,1.389,1.4,2.396,2.76,2.396l0.415-0.038c1.527-0.22,2.587-1.647,2.357-3.175C118.787,51.142,109.831,48.226,104.686,47.765 z"/>
    </g>
  </g>
  <g/>
  <g/>
  <g/>
  <g/>
  <g/>
  <g/>
  <g/>
  <g/>
  <g/>
  <g/>
  <g/>
  <g/>
  <g/>
  <g/>
  <g/>
  <path style="fill: rgb(216, 216, 216); stroke: rgb(0, 0, 0); paint-order: stroke; fill-opacity: 0; stroke-linecap: round;" d="M -154.708 47.565 C -135.981 47.565 -117.388 43.587 -99.709 35.794"/>
  <path style="fill: rgb(216, 216, 216); stroke: rgb(0, 0, 0); paint-order: stroke; fill-opacity: 0; stroke-linecap: round;" d="M -154.274 52.547 C -134.132 52.547 -114.133 47.422 -95.119 37.388"/>
  <path style="fill: rgb(216, 216, 216); stroke: rgb(0, 0, 0); paint-order: stroke; fill-opacity: 0; stroke-linecap: round;" d="M -152.915 62.098 C -130.093 62.098 -107.432 54.811 -85.887 40.539"/>
  <path style="fill: rgb(216, 216, 216); stroke: rgb(0, 0, 0); paint-order: stroke; fill-opacity: 0; stroke-linecap: round;" d="M -154.375 57.38 C -132.612 57.38 -111.004 51.144 -90.459 38.93"/>
  <path style="fill: rgb(216, 216, 216); stroke: rgb(0, 0, 0); paint-order: stroke; fill-opacity: 0;" d="M -152.777 42.702 C -136.396 42.702 -120.132 39.872 -104.667 34.331"/>
  <path style="fill: rgb(216, 216, 216); stroke: rgb(0, 0, 0); paint-order: stroke; fill-opacity: 0; stroke-linecap: round;" d="M -146.771 66.088 C -124.472 66.088 -102.33 57.985 -81.277 42.114"/>
  <path style="fill: rgb(216, 216, 216); stroke: rgb(0, 0, 0); paint-order: stroke; fill-opacity: 0; stroke-linecap: round;" d="M -121.268 65.787 C -103.773 65.787 -86.401 60.623 -69.886 50.511" transform="matrix(0.977405, -0.211376, 0.211376, 0.977405, -14.450879, -18.888793)"/>
  <path style="fill: rgb(216, 216, 216); stroke: rgb(0, 0, 0); paint-order: stroke; fill-opacity: 0; stroke-linecap: round;" d="M -123.273 62.765 C -106.859 62.765 -90.563 57.71 -75.07 47.812" transform="matrix(0.984801, -0.173685, 0.173685, 0.984801, -11.110071, -16.384293)"/>
  <path style="fill: rgb(216, 216, 216); stroke: rgb(0, 0, 0); paint-order: stroke; fill-opacity: 0; stroke-linecap: round;" d="M -115.214 77.758 C -99.626 77.758 -84.149 69.827 -69.433 54.294"/>
  <path style="fill: rgb(216, 216, 216); stroke: rgb(0, 0, 0); paint-order: stroke; fill-opacity: 0; stroke-linecap: round;" d="M -127.432 76.829 C -107.272 76.829 -87.255 66.787 -68.222 47.119"/>
  <path d="M -4.524 -56.407 C -4.997 -57.079 -5.83 -57.156 -6.384 -56.581 L -21.738 -40.607 C -22.033 -40.301 -22.187 -39.87 -22.195 -39.434 L -85.607 26.506 L -105.999 19.427 C -106.699 19.184 -107.431 19.676 -107.631 20.525 C -107.831 21.374 -107.427 22.258 -106.725 22.501 L -105.307 22.995 L -105.307 33.681 C -105.307 34.269 -104.913 34.747 -104.428 34.747 C -103.942 34.747 -103.548 34.269 -103.548 33.681 L -103.548 23.605 L -100.719 24.586 L -100.719 35.274 C -100.719 35.865 -100.324 36.341 -99.839 36.341 C -99.353 36.341 -98.959 35.865 -98.959 35.274 L -98.959 25.196 L -96.13 26.18 L -96.13 36.868 C -96.13 37.456 -95.737 37.932 -95.252 37.932 C -94.765 37.932 -94.372 37.456 -94.372 36.868 L -94.372 26.79 L -91.545 27.771 L -91.545 38.459 C -91.545 39.048 -91.151 39.526 -90.665 39.526 C -90.18 39.526 -89.786 39.048 -89.786 38.459 L -89.786 28.381 L -86.956 29.363 L -86.956 40.051 C -86.956 40.639 -86.564 41.117 -86.076 41.117 C -85.591 41.117 -85.199 40.639 -85.199 40.051 L -85.199 29.975 L -82.369 30.956 L -82.369 41.642 C -82.369 42.231 -81.975 42.709 -81.49 42.709 C -81.004 42.709 -80.61 42.231 -80.61 41.642 L -80.61 31.566 L -77.783 32.548 L -77.783 43.236 C -77.783 43.824 -77.388 44.3 -76.903 44.3 C -76.418 44.3 -76.023 43.824 -76.023 43.236 L -76.023 33.158 L -73.194 34.141 L -73.194 44.827 C -73.194 45.416 -72.802 45.894 -72.314 45.894 C -71.829 45.894 -71.436 45.416 -71.436 44.827 L -71.436 34.751 L -68.607 35.733 L -68.607 46.419 C -68.607 47.007 -68.213 47.485 -67.727 47.485 C -67.242 47.485 -66.848 47.007 -66.848 46.419 L -66.848 36.345 L -66.154 36.584 C -66.033 36.627 -65.911 36.647 -65.792 36.647 C -65.218 36.647 -64.69 36.189 -64.524 35.488 C -64.324 34.637 -64.728 33.752 -65.428 33.509 L -83.561 27.216 L -21.051 -37.811 C -20.994 -37.801 -20.937 -37.795 -20.879 -37.795 C -20.575 -37.795 -20.27 -37.922 -20.021 -38.18 L -4.665 -54.152 C -4.113 -54.729 -4.048 -55.738 -4.524 -56.407 Z" style="fill: rgb(179, 175, 108);"/>
  <g transform="matrix(1, 0, 0, 1, 0.167701, 5.810903)">
    <g>
      <path d="M112.078,34.293l-0.729-0.684l-0.306-0.29C89.068,11.902,63.146,12.941,45.12,17.702 C-2.445,30.255-0.005,69.472,0.03,69.816c0.494,8.088,3.524,14.484,8.988,19.017c9.497,7.863,23.388,7.551,27.825,7.223 c2.834,4.515,8.528,7.469,16.172,7.924l0.975,0.054c0.369,2.711,1.411,4.958,3.133,6.665c4.169,4.132,11.458,4.597,20.71,4.597 c1.288,0,2.638-0.011,3.996-0.016l4.491-0.022c17.581,0,28.991-4.323,34.89-13.199C142.739,69.565,119.669,41.976,112.078,34.293z M102.481,33.22c-17.373,3.387-23.77,20.898-25.928,29.308c-5.603-6.216-0.334-16.618-0.065-17.122 c0.711-1.368,0.169-3.063-1.199-3.781c-1.346-0.695-3.053-0.181-3.773,1.187c-0.21,0.389-4.945,9.609-2.344,17.916 c0.481,1.532,1.248,2.883,2.134,4.143h-4.933l-0.033-0.07c-2.287-3.761-2.849-7.601-1.696-11.772 c3.614-13.083,22.548-24.383,26.871-26.812C95.23,28.027,98.896,30.348,102.481,33.22z M35.977,77.423 c-3.644,0.871-12.324,1.983-16.559-1.713c-2.229-1.953-3.073-5.253-2.477-9.806c0.189-1.526-0.885-2.933-2.426-3.135 c-1.52-0.219-2.942,0.887-3.145,2.424c-0.829,6.528,0.621,11.486,4.354,14.741c3.553,3.104,8.516,3.935,12.858,3.935 c2.405,0,4.597-0.257,6.271-0.536c-0.129,1.816-0.145,3.749-0.021,5.838l0.138,1.357c-4.823,0.164-15.386-0.214-22.401-6.029 c-4.219-3.502-6.556-8.553-6.959-15.065c-0.023-0.345-2.174-34.937,40.941-46.32c7.358-1.937,16.153-3.218,25.388-2.342 c-1.676,1.297-3.744,2.955-5.993,4.87l-0.185-0.038c-1.468-0.081-36.781-0.186-43.892,22.993 c-0.453,1.478,0.364,3.048,1.856,3.498l0.817,0.125c1.193,0,2.302-0.782,2.68-1.985c4.285-13.965,22.501-17.719,32.246-18.699 c-4.56,4.46-8.752,9.374-10.457,13.713c-5.288,0.121-13.079,2.501-15.485,11.196c-1.566,5.641,0.878,11.409,5.769,14.681 C37.858,72.897,36.72,74.961,35.977,77.423z M38.924,57.959c2.218-8.005,11.425-7.058,11.822-7.025 c1.389,0.197,2.848-0.832,3.1-2.32c1.091-6.583,15.906-19.437,24.983-25.992l0.583-0.635c1.871,0.421,3.74,0.952,5.612,1.587 C77.32,28.378,62.753,38.89,59.251,51.551c-1.282,4.619-0.908,9.084,0.919,13.335h-5.512l-0.448-0.006 c-4.041,0-7.454,0.865-10.31,2.437C40.021,65.604,37.887,61.707,38.924,57.959z M116.532,98.961 c-4.777,7.201-14.652,10.697-30.215,10.697l-4.524,0.022c-9.459,0.044-17.626,0.114-20.724-2.955 c-0.455-0.448-0.978-1.19-1.314-2.408c8.503,0.357,15.666,0.416,19.026,0.416c1.285,0,2.013-0.005,2.046-0.005 c1.545-0.021,2.791-1.286,2.769-2.84c-0.014-1.549-1.466-2.873-2.834-2.764c-0.121-0.005-12.808,0.126-27.429-0.738 c-5.951-0.351-12.902-2.971-12.902-9.209l-0.046-0.794c-0.392-6.567,0.822-11.382,3.645-14.337 c2.33-2.446,5.696-3.639,10.576-3.582h37.072c1.538,0,2.802-1.261,2.802-2.805c0-1.547-1.264-2.801-2.802-2.801h-9.953 c1.702-7.36,7.88-26.293,26.388-26.621C114.962,45.21,135.723,70.014,116.532,98.961z" style="stroke: rgb(186, 218, 85); stroke-opacity: 0; fill: rgb(190, 157, 164);"/>
      <path d="M13.103,52.629c-1.513,0.35-2.442,1.844-2.101,3.354c0.348,1.494,1.819,2.49,3.349,2.112 c0.053-0.011,5.486-1.176,8.759,1.702c2.232,1.964,3.138,5.526,2.685,10.61c-0.135,1.532,1.004,2.9,2.538,3.037l0.252,0.012 c1.443,0,2.662-1.096,2.791-2.557c0.625-6.977-0.93-12.137-4.599-15.337C21.311,50.808,13.416,52.569,13.103,52.629z" style="stroke: rgb(186, 218, 85); stroke-opacity: 0; fill: rgb(190, 157, 164);"/>
      <path d="M104.686,47.765c-5.547-0.507-13.662,1.642-14.654,4.586c-0.502,1.472,0.297,3.054,1.751,3.546 c1.095,0.368,2.249,0.033,2.977-0.777c1.401-0.821,7.82-3.141,13.135-0.887c4.015,1.713,6.542,5.801,7.484,12.16 c0.196,1.389,1.4,2.396,2.76,2.396l0.415-0.038c1.527-0.22,2.587-1.647,2.357-3.175C118.787,51.142,109.831,48.226,104.686,47.765 z" style="stroke: rgb(186, 218, 85); stroke-opacity: 0; fill: rgb(190, 157, 164);"/>
    </g>
  </g>
  <path style="fill: rgb(216, 216, 216); paint-order: stroke; fill-opacity: 0; stroke-linecap: round; stroke-width: 4px; stroke: rgb(190, 157, 164);" d="M 43.97 103.527 C 63.474 103.527 82.84 96.896 101.25 83.912"/>
  <path style="fill: rgb(216, 216, 216); paint-order: stroke; fill-opacity: 0; stroke-linecap: round; stroke-width: 4px; stroke: rgb(190, 157, 164);" d="M 38.532 90.866 C 52.631 90.866 66.628 87.706 79.939 81.514"/>
  <path style="fill: rgb(216, 216, 216); paint-order: stroke; fill-opacity: 0; stroke-linecap: round; stroke-width: 4px; stroke: rgb(190, 157, 164);" d="M 61.032 113.563 C 81.783 113.563 102.388 104.048 121.978 85.409"/>
  <line style="stroke-linecap: round; stroke: rgb(216, 194, 172); stroke-width: 6px;" x1="97.913" y1="67.63" x2="129.577" y2="5.731" transform="matrix(0.995492, -0.094842, 0.094842, 0.995492, -2.966129, 10.953149)"/>
  <line style="stroke-width: 5.6px; stroke-linecap: round; stroke: rgb(191, 163, 134);" x1="79.721" y1="80.669" x2="79.635" y2="69.025"/>
  <line style="stroke-width: 5.6px; stroke-linecap: round; stroke: rgb(191, 163, 134);" x1="100.798" y1="83.202" x2="100.712" y2="71.558"/>
  <line style="stroke-width: 5.6px; stroke-linecap: round; stroke: rgb(191, 163, 134);" x1="121.351" y1="84.953" x2="121.265" y2="73.309"/>
  <line style="stroke-width: 7px; stroke: rgb(216, 194, 172); paint-order: stroke;" x1="77.759" y1="63.709" x2="122.865" y2="79.597" transform="matrix(0.972798, -0.231654, 0.231654, 0.972798, -13.870045, 25.186772)"/>
  <circle style="fill: rgb(172, 153, 134);" cx="124.526" cy="74.538" r="3.069" transform="matrix(0.499062, 0.044679, -0.102326, 1.142988, 69.508354, -16.592073)"/>
  <circle style="fill: rgb(216, 194, 172);" cx="124.526" cy="74.538" r="3.069" transform="matrix(0.851013, 0.05046, -0.084039, 1.136652, -22.682989, -21.799149)"/>
</svg>